<?xml version="1.0" encoding="utf-8"?>
<!-- Generator: Adobe Illustrator 15.1.0, SVG Export Plug-In . SVG Version: 6.00 Build 0)  -->
<!DOCTYPE svg PUBLIC "-//W3C//DTD SVG 1.1//EN" "http://www.w3.org/Graphics/SVG/1.1/DTD/svg11.dtd">
<svg version="1.1" id="Ebene_1" xmlns="http://www.w3.org/2000/svg" xmlns:xlink="http://www.w3.org/1999/xlink" x="0px" y="0px"
	 width="655.021px" height="438.41px" viewBox="0 0 655.021 438.41" enable-background="new 0 0 655.021 438.41"
	 xml:space="preserve">
<g>
	<path fill="#F08102" d="M123.41,300.748l-5.016-15.875H88.177l-5.135,15.875H65.724l30.933-89.711h13.018l31.052,89.711H123.41z
		 M103.583,237.497l-10.749,32.634h21.14L103.583,237.497z"/>
	<path fill="#F08102" d="M211.489,278.447c-0.996,5.209-3.364,9.785-7.106,13.732c-2.708,2.857-5.992,5-9.854,6.426
		c-3.863,1.43-8.062,2.143-12.6,2.143h-30.694v-89.711h30.694c4.539,0,8.737,0.714,12.6,2.142c3.861,1.43,7.146,3.571,9.854,6.426
		c1.989,2.017,3.562,4.201,4.717,6.553c1.153,2.353,2.01,4.936,2.568,7.749c0.556,2.814,0.915,5.839,1.075,9.071
		c0.158,3.236,0.239,7.416,0.239,12.537C212.982,265.594,212.484,273.238,211.489,278.447z M195.725,239.954
		c-0.439-3.233-1.415-5.816-2.926-7.749c-2.866-3.695-7.007-5.544-12.421-5.544h-12.541v58.464h12.541
		c5.414,0,9.555-1.848,12.421-5.545c1.512-1.932,2.487-4.6,2.926-8c0.437-3.402,0.657-8.758,0.657-16.066
		C196.381,248.375,196.161,243.188,195.725,239.954z"/>
	<path fill="#F08102" d="M277.118,300.748l-5.017-15.875h-30.216l-5.135,15.875h-17.318l30.933-89.711h13.018l31.053,89.711H277.118
		z M257.292,237.497l-10.749,32.634h21.139L257.292,237.497z"/>
	<path fill="#F08102" d="M302.077,272.398v-15.246h36.786v15.246H302.077z"/>
	<path fill="#F08102" d="M372.423,226.661v22.05h33.561v15.623h-33.561v36.414h-16.602v-89.711h56.014v15.624H372.423z"/>
	<path fill="#F08102" d="M471.194,294.26c-5.895,4.83-13.458,7.244-22.693,7.244c-6.688,0-12.521-0.9-17.496-2.709
		c-4.978-1.805-9.495-4.852-13.556-9.135l10.749-11.34c2.547,2.689,5.553,4.621,9.017,5.797s7.305,1.764,11.525,1.764
		c10.032,0,15.049-3.695,15.049-11.088c0-3.107-0.758-5.523-2.27-7.246c-1.513-1.721-4.141-2.875-7.883-3.465l-4.777-0.756
		l-5.493-0.756c-7.246-1.09-12.74-3.57-16.481-7.434c-4.062-4.285-6.092-10.164-6.092-17.64c0-8.147,2.667-14.721,8.002-19.72
		c5.334-4.996,12.541-7.496,21.617-7.496c5.973,0,11.146,0.818,15.526,2.456c4.378,1.639,8.36,4.306,11.943,8.002l-10.51,10.962
		c-2.39-2.436-5.037-4.074-7.942-4.914c-2.907-0.839-6.072-1.261-9.495-1.261c-4.222,0-7.465,1.071-9.733,3.214
		c-2.27,2.142-3.404,4.851-3.404,8.127c0,2.353,0.875,4.473,2.628,6.362c1.75,1.89,4.338,3.087,7.763,3.591l5.136,0.756l4.896,0.756
		c3.821,0.59,7.026,1.43,9.614,2.52c2.587,1.094,4.796,2.564,6.629,4.41c4.377,4.369,6.568,10.711,6.568,19.027
		C480.031,282.773,477.085,289.43,471.194,294.26z"/>
</g>
<g>
	<path fill="#1B2C4E" d="M80.457,373.842l-1.236-3.779h-7.444l-1.265,3.779h-4.267l7.621-21.359h3.207l7.651,21.359H80.457z
		 M75.572,358.781l-2.648,7.77h5.208L75.572,358.781z"/>
	<path fill="#1B2C4E" d="M95.492,373.842v-1.471c-0.53,0.6-1.088,1.025-1.677,1.275c-0.588,0.25-1.295,0.375-2.119,0.375
		c-0.746,0-1.452-0.125-2.119-0.375c-0.667-0.25-1.216-0.596-1.647-1.035c-0.667-0.699-1.118-1.699-1.354-3
		c-0.079-0.52-0.132-1.061-0.162-1.619c-0.03-0.561-0.044-1.221-0.044-1.98c0-1.6,0.093-2.926,0.279-3.975
		c0.187-1.051,0.613-1.916,1.28-2.596c0.431-0.439,0.976-0.785,1.633-1.035c0.657-0.25,1.358-0.375,2.104-0.375
		c0.804,0,1.505,0.121,2.104,0.359c0.598,0.24,1.142,0.641,1.633,1.201v-7.109h3.825v21.359H95.492z M95.315,364.166
		c-0.059-0.51-0.176-0.955-0.353-1.334c-0.393-0.859-1.118-1.291-2.177-1.291c-0.549,0-1,0.111-1.354,0.33
		c-0.353,0.221-0.618,0.525-0.794,0.916c-0.176,0.389-0.294,0.844-0.353,1.365c-0.059,0.52-0.088,1.139-0.088,1.859
		s0.029,1.34,0.088,1.859c0.059,0.521,0.177,0.98,0.353,1.381s0.441,0.709,0.794,0.93s0.804,0.33,1.354,0.33
		c1.059,0,1.785-0.43,2.177-1.291c0.177-0.379,0.294-0.834,0.353-1.363c0.059-0.531,0.089-1.146,0.089-1.846
		C95.404,365.291,95.375,364.676,95.315,364.166z"/>
	<path fill="#1B2C4E" d="M103.113,367.092v-3.631h9.062v3.631H103.113z"/>
	<path fill="#1B2C4E" d="M124.857,373.842v-9.541c0-0.959-0.246-1.658-0.735-2.1c-0.491-0.439-1.079-0.66-1.766-0.66
		c-0.687,0-1.27,0.225-1.75,0.676c-0.481,0.449-0.721,1.145-0.721,2.084v9.541h-3.825v-21.359h3.825v7.17
		c1.04-1.08,2.266-1.621,3.678-1.621c1.628,0,2.889,0.525,3.781,1.576c0.893,1.049,1.339,2.424,1.339,4.125v10.109H124.857z"/>
	<path fill="#1B2C4E" d="M144.762,369.656c-0.245,0.93-0.701,1.746-1.368,2.445c-0.53,0.561-1.192,1.02-1.987,1.381
		c-0.794,0.359-1.721,0.539-2.78,0.539c-1.06,0-1.981-0.18-2.766-0.539c-0.785-0.361-1.442-0.82-1.972-1.381
		c-0.667-0.699-1.123-1.516-1.369-2.445c-0.245-0.93-0.368-2.145-0.368-3.645c0-1.48,0.123-2.686,0.368-3.615
		c0.246-0.93,0.701-1.744,1.369-2.445c0.529-0.58,1.187-1.045,1.972-1.395c0.784-0.35,1.706-0.525,2.766-0.525
		c1.059,0,1.986,0.18,2.78,0.541c0.794,0.359,1.457,0.82,1.987,1.379c0.667,0.701,1.123,1.516,1.368,2.445s0.368,2.135,0.368,3.615
		C145.129,367.512,145.007,368.727,144.762,369.656z M141.143,363.672c-0.108-0.6-0.348-1.08-0.721-1.439
		c-0.452-0.461-1.05-0.691-1.795-0.691c-0.726,0-1.314,0.23-1.766,0.691c-0.353,0.359-0.588,0.84-0.706,1.439
		s-0.176,1.379-0.176,2.34c0,0.959,0.059,1.74,0.176,2.34s0.354,1.09,0.706,1.471c0.451,0.459,1.04,0.689,1.766,0.689
		c0.745,0,1.343-0.23,1.795-0.689c0.373-0.381,0.613-0.871,0.721-1.471s0.162-1.381,0.162-2.34
		C141.304,365.051,141.25,364.271,141.143,363.672z"/>
	<path fill="#1B2C4E" d="M154.869,374.021c-0.843,0-1.662-0.131-2.457-0.391c-0.794-0.26-1.525-0.693-2.192-1.305
		c-0.667-0.609-1.202-1.439-1.604-2.49c-0.402-1.049-0.603-2.324-0.603-3.824s0.201-2.775,0.603-3.824
		c0.402-1.051,0.937-1.875,1.604-2.477c0.667-0.6,1.397-1.029,2.192-1.289c0.795-0.26,1.614-0.391,2.457-0.391
		c1.059,0,2.001,0.17,2.825,0.51c0.824,0.342,1.569,0.871,2.236,1.59l-2.589,2.641c-0.412-0.439-0.805-0.754-1.177-0.945
		c-0.373-0.189-0.805-0.285-1.295-0.285c-0.902,0-1.628,0.342-2.177,1.021c-0.569,0.719-0.854,1.869-0.854,3.449
		c0,1.6,0.284,2.76,0.854,3.48c0.549,0.68,1.275,1.02,2.177,1.02c0.49,0,0.922-0.096,1.295-0.285
		c0.372-0.189,0.765-0.504,1.177-0.945l2.589,2.609C158.596,373.312,156.909,374.021,154.869,374.021z"/>
	<path fill="#1B2C4E" d="M174.113,356.201v5.25h8.268v3.721h-8.268v8.67h-4.09v-21.359h13.8v3.719H174.113z"/>
	<path fill="#1B2C4E" d="M187.029,355.541v-3.18h3.914v3.18H187.029z M187.088,373.842v-15.631h3.825v15.631H187.088z"/>
	<path fill="#1B2C4E" d="M199.505,373.842c-1.471,0-2.584-0.439-3.34-1.32c-0.755-0.879-1.132-1.93-1.132-3.15v-16.889h3.825v16.648
		c0,0.941,0.451,1.41,1.354,1.41h1.471v3.301H199.505z"/>
	<path fill="#1B2C4E" d="M207.009,367.242c0,1.039,0.299,1.879,0.897,2.52c0.598,0.641,1.417,0.959,2.457,0.959
		c0.804,0,1.457-0.113,1.957-0.344c0.5-0.23,1.005-0.605,1.515-1.125l2.325,2.311c-0.844,0.859-1.697,1.484-2.56,1.875
		c-0.864,0.389-1.953,0.584-3.267,0.584c-0.981,0-1.888-0.131-2.721-0.391c-0.834-0.26-1.58-0.689-2.237-1.289
		c-0.658-0.6-1.177-1.426-1.559-2.475c-0.383-1.051-0.574-2.336-0.574-3.855c0-2.52,0.607-4.48,1.824-5.881
		c1.216-1.398,2.834-2.1,4.855-2.1c2.079,0,3.712,0.695,4.899,2.086c1.187,1.391,1.78,3.184,1.78,5.385v1.74H207.009z
		 M212.731,363.688c-0.049-0.25-0.132-0.516-0.25-0.797c-0.216-0.498-0.54-0.895-0.971-1.184c-0.431-0.291-0.961-0.436-1.588-0.436
		c-0.609,0-1.133,0.145-1.574,0.436c-0.441,0.289-0.77,0.686-0.986,1.184c-0.118,0.281-0.201,0.547-0.25,0.797
		c-0.049,0.25-0.084,0.545-0.103,0.885h5.826C212.815,364.232,212.78,363.938,212.731,363.688z"/>
	<path fill="#1B2C4E" d="M238.609,372.297c-1.451,1.15-3.315,1.725-5.59,1.725c-1.648,0-3.085-0.215-4.311-0.645
		c-1.227-0.43-2.339-1.156-3.34-2.176l2.648-2.699c0.627,0.641,1.368,1.1,2.222,1.379c0.853,0.281,1.799,0.42,2.839,0.42
		c2.472,0,3.708-0.879,3.708-2.639c0-0.74-0.187-1.314-0.559-1.725c-0.373-0.41-1.021-0.686-1.942-0.826l-1.177-0.18l-1.354-0.18
		c-1.785-0.26-3.139-0.85-4.061-1.77c-1-1.021-1.5-2.42-1.5-4.201c0-1.939,0.657-3.504,1.971-4.695
		c1.314-1.189,3.089-1.785,5.326-1.785c1.471,0,2.746,0.195,3.825,0.586s2.06,1.025,2.942,1.904l-2.589,2.611
		c-0.588-0.58-1.241-0.971-1.956-1.17c-0.717-0.201-1.496-0.301-2.34-0.301c-1.04,0-1.839,0.256-2.398,0.766
		s-0.838,1.154-0.838,1.934c0,0.561,0.215,1.066,0.647,1.516s1.069,0.734,1.913,0.855l1.266,0.18l1.206,0.18
		c0.942,0.141,1.731,0.34,2.369,0.6c0.637,0.262,1.181,0.611,1.633,1.051c1.079,1.039,1.618,2.551,1.618,4.529
		C240.787,369.562,240.061,371.146,238.609,372.297z"/>
	<path fill="#1B2C4E" d="M250.055,376.361c-0.333,0.9-0.716,1.57-1.147,2.01c-0.412,0.439-0.897,0.75-1.457,0.93
		c-0.559,0.182-1.172,0.271-1.839,0.271h-1.5v-3.51h0.883c0.549,0,0.956-0.096,1.221-0.285c0.265-0.191,0.495-0.566,0.691-1.125
		l0.647-1.92l-5.237-14.521h4.031l3.178,9.66l3.06-9.66h4.032L250.055,376.361z"/>
	<path fill="#1B2C4E" d="M268.593,372.717c-1.217,0.869-2.775,1.305-4.679,1.305c-1.413,0-2.633-0.15-3.664-0.449
		c-1.028-0.301-1.985-0.9-2.868-1.801l2.5-2.551c0.569,0.582,1.202,0.971,1.898,1.17c0.696,0.201,1.428,0.301,2.192,0.301
		c0.745,0,1.383-0.135,1.913-0.404c0.529-0.271,0.794-0.676,0.794-1.215c0-0.42-0.127-0.75-0.382-0.99
		c-0.256-0.24-0.668-0.391-1.235-0.451l-1.179-0.119l-1.235-0.121c-1.452-0.139-2.559-0.559-3.325-1.26
		c-0.765-0.699-1.147-1.74-1.147-3.119c0-1.561,0.574-2.779,1.721-3.66c1.147-0.879,2.545-1.32,4.193-1.32
		c1.274,0,2.397,0.141,3.369,0.42c0.97,0.281,1.8,0.75,2.486,1.41l-2.354,2.43c-0.412-0.379-0.922-0.648-1.529-0.809
		c-0.609-0.16-1.286-0.24-2.031-0.24c-0.726,0-1.27,0.145-1.633,0.434c-0.363,0.291-0.544,0.646-0.544,1.066
		c0,0.34,0.112,0.635,0.338,0.885c0.227,0.25,0.642,0.404,1.251,0.465l1.206,0.119l1.206,0.121c1.512,0.141,2.649,0.605,3.413,1.395
		c0.766,0.791,1.148,1.855,1.148,3.195C270.417,370.582,269.81,371.846,268.593,372.717z"/>
	<path fill="#1B2C4E" d="M278.126,373.842c-1.452,0-2.556-0.439-3.311-1.32c-0.756-0.879-1.133-1.93-1.133-3.15v-7.74h-1.619v-2.969
		h1.619v-4.621h3.825v4.621h2.707v2.969h-2.707v7.5c0,0.941,0.441,1.41,1.324,1.41h1.383v3.301H278.126z"/>
	<path fill="#1B2C4E" d="M286.6,367.242c0,1.039,0.299,1.879,0.898,2.52c0.598,0.641,1.417,0.959,2.456,0.959
		c0.805,0,1.457-0.113,1.958-0.344c0.5-0.23,1.004-0.605,1.515-1.125l2.324,2.311c-0.843,0.859-1.697,1.484-2.56,1.875
		c-0.864,0.389-1.952,0.584-3.266,0.584c-0.981,0-1.89-0.131-2.723-0.391s-1.578-0.689-2.235-1.289
		c-0.658-0.6-1.178-1.426-1.56-2.475c-0.383-1.051-0.574-2.336-0.574-3.855c0-2.52,0.608-4.48,1.824-5.881
		c1.216-1.398,2.834-2.1,4.855-2.1c2.078,0,3.712,0.695,4.898,2.086c1.188,1.391,1.78,3.184,1.78,5.385v1.74H286.6z
		 M292.324,363.688c-0.05-0.25-0.133-0.516-0.251-0.797c-0.216-0.498-0.54-0.895-0.972-1.184c-0.431-0.291-0.961-0.436-1.588-0.436
		c-0.609,0-1.133,0.145-1.575,0.436c-0.44,0.289-0.77,0.686-0.985,1.184c-0.117,0.281-0.201,0.547-0.25,0.797
		c-0.05,0.25-0.084,0.545-0.104,0.885h5.827C292.406,364.232,292.372,363.938,292.324,363.688z"/>
	<path fill="#1B2C4E" d="M317.555,373.842v-9.451c0-0.979-0.251-1.699-0.751-2.158c-0.5-0.461-1.094-0.691-1.779-0.691
		c-0.688,0-1.285,0.225-1.795,0.676c-0.512,0.449-0.766,1.145-0.766,2.084v9.541h-3.825v-9.451c0-0.979-0.25-1.699-0.75-2.158
		c-0.5-0.461-1.094-0.691-1.78-0.691c-0.706,0-1.31,0.23-1.81,0.691c-0.5,0.459-0.751,1.18-0.751,2.158v9.451h-3.825v-15.631h3.737
		v1.441c0.49-0.521,1.074-0.92,1.75-1.201c0.678-0.279,1.369-0.42,2.075-0.42c1.766,0,3.118,0.66,4.061,1.98
		c0.647-0.68,1.334-1.18,2.06-1.5c0.727-0.32,1.569-0.48,2.531-0.48c0.764,0,1.475,0.121,2.133,0.359
		c0.657,0.24,1.201,0.582,1.633,1.021c0.588,0.6,1.016,1.264,1.279,1.994c0.265,0.73,0.397,1.545,0.397,2.445v9.99H317.555z"/>
	<path fill="#1B2C4E" d="M335.208,372.717c-1.216,0.869-2.775,1.305-4.679,1.305c-1.412,0-2.633-0.15-3.662-0.449
		c-1.03-0.301-1.987-0.9-2.869-1.801l2.501-2.551c0.568,0.582,1.201,0.971,1.898,1.17c0.695,0.201,1.427,0.301,2.191,0.301
		c0.745,0,1.383-0.135,1.913-0.404c0.529-0.271,0.794-0.676,0.794-1.215c0-0.42-0.128-0.75-0.383-0.99
		c-0.256-0.24-0.667-0.391-1.235-0.451l-1.177-0.119l-1.236-0.121c-1.451-0.139-2.56-0.559-3.325-1.26
		c-0.765-0.699-1.147-1.74-1.147-3.119c0-1.561,0.575-2.779,1.723-3.66c1.147-0.879,2.544-1.32,4.192-1.32
		c1.274,0,2.397,0.141,3.368,0.42c0.972,0.281,1.8,0.75,2.486,1.41l-2.354,2.43c-0.411-0.379-0.921-0.648-1.529-0.809
		s-1.284-0.24-2.029-0.24c-0.727,0-1.271,0.145-1.634,0.434c-0.362,0.291-0.545,0.646-0.545,1.066c0,0.34,0.113,0.635,0.34,0.885
		c0.225,0.25,0.642,0.404,1.25,0.465l1.205,0.119l1.207,0.121c1.511,0.141,2.648,0.605,3.414,1.395
		c0.765,0.791,1.147,1.855,1.147,3.195C337.033,370.582,336.425,371.846,335.208,372.717z"/>
	<path fill="#1B2C4E" d="M354.923,373.842v-1.35c-0.53,0.539-1.074,0.924-1.634,1.154s-1.27,0.346-2.133,0.346
		c-1.706,0-3.012-0.461-3.913-1.381c-0.845-0.9-1.266-2.07-1.266-3.51c0-1.32,0.446-2.404,1.339-3.256
		c0.893-0.85,2.192-1.273,3.898-1.273h3.619v-0.781c0-0.859-0.221-1.484-0.661-1.875c-0.442-0.389-1.173-0.584-2.192-0.584
		c-0.706,0-1.271,0.094-1.692,0.285c-0.422,0.189-0.838,0.523-1.25,1.004l-2.442-2.43c0.726-0.82,1.5-1.385,2.324-1.695
		c0.823-0.309,1.893-0.465,3.208-0.465c4.354,0,6.531,1.84,6.531,5.52v10.291H354.923z M354.834,367.242h-3.03
		c-1.432,0-2.148,0.59-2.148,1.77c0,0.561,0.187,1,0.56,1.32c0.372,0.32,0.921,0.48,1.647,0.48c0.589,0,1.059-0.051,1.412-0.15
		s0.688-0.301,1.001-0.6c0.372-0.361,0.559-1.021,0.559-1.98V367.242z"/>
	<path fill="#1B2C4E" d="M367.575,373.842c-1.452,0-2.556-0.439-3.311-1.32c-0.756-0.879-1.133-1.93-1.133-3.15v-7.74h-1.619v-2.969
		h1.619v-4.621h3.825v4.621h2.707v2.969h-2.707v7.5c0,0.941,0.44,1.41,1.324,1.41h1.383v3.301H367.575z"/>
	<path fill="#1B2C4E" d="M380.257,373.842v-21.359h13.799v3.719h-9.709v5.01h8.268v3.721h-8.268v5.189h9.709v3.721H380.257z"/>
	<path fill="#1B2C4E" d="M406.179,373.842l-2.824-4.68l-2.795,4.68h-4.591l5.296-7.98l-5.09-7.65h4.59l2.59,4.471l2.619-4.471h4.59
		l-5.09,7.65l5.297,7.98H406.179z"/>
	<path fill="#1B2C4E" d="M418.066,373.842c-1.452,0-2.555-0.439-3.31-1.32c-0.756-0.879-1.135-1.93-1.135-3.15v-7.74h-1.617v-2.969
		h1.617v-4.621h3.826v4.621h2.707v2.969h-2.707v7.5c0,0.941,0.441,1.41,1.323,1.41h1.384v3.301H418.066z"/>
	<path fill="#1B2C4E" d="M431.954,362.471c-0.314-0.34-0.623-0.578-0.927-0.719s-0.672-0.211-1.104-0.211
		c-0.646,0-1.222,0.25-1.722,0.75s-0.751,1.211-0.751,2.131v9.42h-3.824v-15.631h3.736v1.5c0.393-0.479,0.937-0.879,1.634-1.199
		c0.695-0.32,1.438-0.48,2.222-0.48c0.765,0,1.432,0.111,2.001,0.33c0.568,0.221,1.107,0.6,1.618,1.141L431.954,362.471z"/>
	<path fill="#1B2C4E" d="M439.104,367.242c0,1.039,0.299,1.879,0.897,2.52c0.598,0.641,1.418,0.959,2.457,0.959
		c0.804,0,1.457-0.113,1.957-0.344s1.004-0.605,1.515-1.125l2.325,2.311c-0.844,0.859-1.697,1.484-2.561,1.875
		c-0.863,0.389-1.952,0.584-3.267,0.584c-0.98,0-1.888-0.131-2.721-0.391c-0.835-0.26-1.579-0.689-2.236-1.289
		s-1.178-1.426-1.56-2.475c-0.383-1.051-0.574-2.336-0.574-3.855c0-2.52,0.608-4.48,1.825-5.881c1.216-1.398,2.833-2.1,4.854-2.1
		c2.079,0,3.712,0.695,4.898,2.086c1.188,1.391,1.781,3.184,1.781,5.385v1.74H439.104z M444.826,363.688
		c-0.05-0.25-0.132-0.516-0.25-0.797c-0.215-0.498-0.539-0.895-0.971-1.184c-0.433-0.291-0.961-0.436-1.589-0.436
		c-0.608,0-1.133,0.145-1.574,0.436c-0.441,0.289-0.77,0.686-0.985,1.184c-0.118,0.281-0.201,0.547-0.251,0.797
		c-0.049,0.25-0.084,0.545-0.103,0.885h5.826C444.91,364.232,444.875,363.938,444.826,363.688z"/>
	<path fill="#1B2C4E" d="M470.058,373.842v-9.451c0-0.979-0.25-1.699-0.751-2.158c-0.5-0.461-1.094-0.691-1.78-0.691
		s-1.285,0.225-1.795,0.676c-0.51,0.449-0.764,1.145-0.764,2.084v9.541h-3.826v-9.451c0-0.979-0.251-1.699-0.751-2.158
		c-0.5-0.461-1.094-0.691-1.779-0.691c-0.707,0-1.31,0.23-1.811,0.691c-0.5,0.459-0.75,1.18-0.75,2.158v9.451h-3.824v-15.631h3.736
		v1.441c0.489-0.521,1.074-0.92,1.751-1.201c0.678-0.279,1.369-0.42,2.074-0.42c1.766,0,3.119,0.66,4.061,1.98
		c0.647-0.68,1.333-1.18,2.06-1.5c0.726-0.32,1.569-0.48,2.53-0.48c0.766,0,1.477,0.121,2.134,0.359
		c0.657,0.24,1.201,0.582,1.633,1.021c0.589,0.6,1.015,1.264,1.28,1.994c0.265,0.73,0.397,1.545,0.397,2.445v9.99H470.058z"/>
	<path fill="#1B2C4E" d="M481.003,367.242c0,1.039,0.299,1.879,0.898,2.52c0.598,0.641,1.416,0.959,2.456,0.959
		c0.805,0,1.456-0.113,1.957-0.344c0.5-0.23,1.005-0.605,1.516-1.125l2.324,2.311c-0.844,0.859-1.697,1.484-2.56,1.875
		c-0.863,0.389-1.953,0.584-3.266,0.584c-0.982,0-1.889-0.131-2.723-0.391s-1.579-0.689-2.236-1.289
		c-0.658-0.6-1.177-1.426-1.56-2.475c-0.382-1.051-0.573-2.336-0.573-3.855c0-2.52,0.607-4.48,1.823-5.881
		c1.217-1.398,2.836-2.1,4.856-2.1c2.078,0,3.712,0.695,4.898,2.086s1.779,3.184,1.779,5.385v1.74H481.003z M486.727,363.688
		c-0.049-0.25-0.132-0.516-0.25-0.797c-0.217-0.498-0.54-0.895-0.972-1.184c-0.431-0.291-0.961-0.436-1.588-0.436
		c-0.609,0-1.134,0.145-1.574,0.436c-0.441,0.289-0.771,0.686-0.987,1.184c-0.116,0.281-0.201,0.547-0.249,0.797
		c-0.05,0.25-0.084,0.545-0.104,0.885h5.826C486.81,364.232,486.775,363.938,486.727,363.688z"/>
	<path fill="#1B2C4E" d="M512.604,372.297c-1.451,1.15-3.313,1.725-5.59,1.725c-1.647,0-3.085-0.215-4.31-0.645
		c-1.228-0.43-2.34-1.156-3.341-2.176l2.649-2.699c0.626,0.641,1.367,1.1,2.221,1.379c0.854,0.281,1.8,0.42,2.84,0.42
		c2.472,0,3.707-0.879,3.707-2.639c0-0.74-0.187-1.314-0.56-1.725c-0.372-0.41-1.021-0.686-1.941-0.826l-1.177-0.18l-1.354-0.18
		c-1.785-0.26-3.139-0.85-4.061-1.77c-1.001-1.021-1.501-2.42-1.501-4.201c0-1.939,0.657-3.504,1.972-4.695
		c1.313-1.189,3.089-1.785,5.326-1.785c1.471,0,2.745,0.195,3.824,0.586s2.061,1.025,2.942,1.904l-2.589,2.611
		c-0.589-0.58-1.241-0.971-1.957-1.17c-0.716-0.201-1.496-0.301-2.34-0.301c-1.039,0-1.839,0.256-2.397,0.766
		c-0.56,0.51-0.838,1.154-0.838,1.934c0,0.561,0.215,1.066,0.646,1.516c0.433,0.449,1.069,0.734,1.913,0.855l1.266,0.18l1.205,0.18
		c0.942,0.141,1.732,0.34,2.37,0.6c0.636,0.262,1.181,0.611,1.632,1.051c1.078,1.039,1.619,2.551,1.619,4.529
		C514.782,369.562,514.056,371.146,512.604,372.297z"/>
	<path fill="#1B2C4E" d="M524.433,374.021c-0.844,0-1.662-0.131-2.457-0.391s-1.525-0.693-2.191-1.305
		c-0.667-0.609-1.202-1.439-1.604-2.49c-0.402-1.049-0.604-2.324-0.604-3.824s0.201-2.775,0.604-3.824
		c0.401-1.051,0.937-1.875,1.604-2.477c0.666-0.6,1.396-1.029,2.191-1.289s1.613-0.391,2.457-0.391c1.06,0,2,0.17,2.824,0.51
		c0.824,0.342,1.569,0.871,2.237,1.59l-2.59,2.641c-0.412-0.439-0.805-0.754-1.177-0.945c-0.373-0.189-0.805-0.285-1.295-0.285
		c-0.902,0-1.628,0.342-2.178,1.021c-0.569,0.719-0.853,1.869-0.853,3.449c0,1.6,0.283,2.76,0.853,3.48
		c0.55,0.68,1.275,1.02,2.178,1.02c0.49,0,0.922-0.096,1.295-0.285c0.372-0.189,0.765-0.504,1.177-0.945l2.59,2.609
		C528.159,373.312,526.474,374.021,524.433,374.021z"/>
	<path fill="#1B2C4E" d="M540.204,373.842v-1.35c-0.53,0.539-1.074,0.924-1.634,1.154s-1.271,0.346-2.133,0.346
		c-1.706,0-3.012-0.461-3.913-1.381c-0.845-0.9-1.266-2.07-1.266-3.51c0-1.32,0.446-2.404,1.339-3.256
		c0.893-0.85,2.192-1.273,3.898-1.273h3.619v-0.781c0-0.859-0.221-1.484-0.662-1.875c-0.441-0.389-1.172-0.584-2.191-0.584
		c-0.706,0-1.271,0.094-1.692,0.285c-0.422,0.189-0.838,0.523-1.25,1.004l-2.442-2.43c0.726-0.82,1.5-1.385,2.324-1.695
		c0.823-0.309,1.893-0.465,3.207-0.465c4.355,0,6.532,1.84,6.532,5.52v10.291H540.204z M540.115,367.242h-3.03
		c-1.432,0-2.148,0.59-2.148,1.77c0,0.561,0.187,1,0.56,1.32c0.372,0.32,0.921,0.48,1.647,0.48c0.589,0,1.059-0.051,1.412-0.15
		s0.688-0.301,1.001-0.6c0.372-0.361,0.559-1.021,0.559-1.98V367.242z"/>
	<path fill="#1B2C4E" d="M552.386,373.842c-1.471,0-2.585-0.439-3.341-1.32c-0.755-0.879-1.132-1.93-1.132-3.15v-16.889h3.825
		v16.648c0,0.941,0.45,1.41,1.353,1.41h1.472v3.301H552.386z"/>
	<path fill="#1B2C4E" d="M559.889,367.242c0,1.039,0.299,1.879,0.897,2.52c0.598,0.641,1.418,0.959,2.457,0.959
		c0.804,0,1.457-0.113,1.957-0.344s1.004-0.605,1.515-1.125l2.325,2.311c-0.844,0.859-1.697,1.484-2.561,1.875
		c-0.863,0.389-1.952,0.584-3.267,0.584c-0.98,0-1.888-0.131-2.721-0.391c-0.834-0.26-1.579-0.689-2.236-1.289
		s-1.178-1.426-1.56-2.475c-0.383-1.051-0.574-2.336-0.574-3.855c0-2.52,0.608-4.48,1.825-5.881c1.216-1.398,2.833-2.1,4.854-2.1
		c2.079,0,3.712,0.695,4.898,2.086c1.188,1.391,1.781,3.184,1.781,5.385v1.74H559.889z M565.611,363.688
		c-0.05-0.25-0.132-0.516-0.25-0.797c-0.215-0.498-0.539-0.895-0.971-1.184c-0.433-0.291-0.961-0.436-1.589-0.436
		c-0.608,0-1.133,0.145-1.574,0.436c-0.441,0.289-0.77,0.686-0.985,1.184c-0.118,0.281-0.201,0.547-0.251,0.797
		c-0.049,0.25-0.083,0.545-0.103,0.885h5.826C565.695,364.232,565.66,363.938,565.611,363.688z"/>
	<path fill="#1B2C4E" d="M582.722,372.717c-1.217,0.869-2.776,1.305-4.68,1.305c-1.411,0-2.633-0.15-3.662-0.449
		c-1.03-0.301-1.986-0.9-2.869-1.801l2.501-2.551c0.569,0.582,1.201,0.971,1.898,1.17c0.695,0.201,1.427,0.301,2.191,0.301
		c0.745,0,1.383-0.135,1.913-0.404c0.529-0.271,0.794-0.676,0.794-1.215c0-0.42-0.128-0.75-0.382-0.99
		c-0.256-0.24-0.668-0.391-1.236-0.451l-1.177-0.119l-1.235-0.121c-1.452-0.139-2.561-0.559-3.326-1.26
		c-0.764-0.699-1.147-1.74-1.147-3.119c0-1.561,0.575-2.779,1.723-3.66c1.147-0.879,2.544-1.32,4.192-1.32
		c1.274,0,2.397,0.141,3.368,0.42c0.972,0.281,1.8,0.75,2.487,1.41l-2.354,2.43c-0.412-0.379-0.922-0.648-1.53-0.809
		c-0.607-0.16-1.284-0.24-2.029-0.24c-0.727,0-1.271,0.145-1.634,0.434c-0.362,0.291-0.544,0.646-0.544,1.066
		c0,0.34,0.112,0.635,0.339,0.885c0.225,0.25,0.642,0.404,1.25,0.465l1.206,0.119l1.206,0.121c1.511,0.141,2.648,0.605,3.414,1.395
		c0.765,0.791,1.147,1.855,1.147,3.195C584.546,370.582,583.938,371.846,582.722,372.717z"/>
</g>
<path fill="#1B2C4E" d="M598.347,152.828v-0.427H280.908v-22.769c0-7.035-4.077-12.956-12.049-18.098
	c-7.769-5.052-17.394-7.669-28.396-7.669H58.578c-11.387,0-21.002,2.617-28.78,7.669c-7.59,4.946-11.701,11.063-11.701,18.098V402.1
	c0,7.029,3.933,13.262,11.701,18.318c7.598,4.945,17.393,7.451,28.78,7.451h536.076c11.392,0,21.146-2.506,28.775-7.451
	c7.77-5.057,11.705-11.289,11.705-18.318V175.818C635.135,163.647,618.064,153.668,598.347,152.828L598.347,152.828z
	 M48.233,129.632c0-1.51,0.971-2.129,3.345-2.129h197.885c1.327,0,3.657,1.259,3.657,2.129v22.769H48.233V129.632z M607.347,177.947
	V402.1c0,0.865-2.021,2.129-3.692,2.129H51.578c-2.374,0-3.345-0.621-3.345-2.129V175.818h556.113L607.347,177.947z
	 M607.347,177.947"/>
<g>
	<path fill="#1B2C4E" d="M80.293,339.383l-1.322-3.781H71.01l-1.353,3.781h-4.563l8.15-21.361h3.431l8.182,21.361H80.293z
		 M75.069,324.322l-2.832,7.77h5.57L75.069,324.322z"/>
	<path fill="#1B2C4E" d="M96.373,339.383v-1.471c-0.567,0.6-1.165,1.025-1.794,1.275c-0.63,0.25-1.385,0.375-2.267,0.375
		c-0.797,0-1.552-0.125-2.265-0.375c-0.714-0.25-1.301-0.596-1.762-1.035c-0.714-0.699-1.196-1.699-1.447-3
		c-0.085-0.52-0.142-1.061-0.173-1.621c-0.031-0.559-0.047-1.219-0.047-1.979c0-1.6,0.099-2.926,0.299-3.977
		c0.199-1.049,0.655-1.914,1.369-2.594c0.461-0.439,1.043-0.785,1.747-1.035c0.703-0.25,1.453-0.375,2.25-0.375
		c0.86,0,1.61,0.119,2.25,0.359c0.64,0.24,1.221,0.641,1.747,1.201v-7.111h4.09v21.361H96.373z M96.184,329.707
		c-0.063-0.51-0.188-0.955-0.377-1.334c-0.42-0.861-1.196-1.291-2.329-1.291c-0.588,0-1.07,0.109-1.448,0.33
		c-0.377,0.221-0.661,0.525-0.849,0.914c-0.189,0.391-0.315,0.846-0.378,1.365c-0.063,0.521-0.094,1.141-0.094,1.861
		c0,0.719,0.031,1.34,0.094,1.859c0.062,0.52,0.189,0.98,0.378,1.381c0.188,0.4,0.471,0.709,0.849,0.93
		c0.378,0.221,0.86,0.33,1.448,0.33c1.132,0,1.908-0.43,2.329-1.291c0.189-0.379,0.314-0.834,0.377-1.365
		c0.063-0.529,0.095-1.145,0.095-1.844C96.278,330.832,96.247,330.217,96.184,329.707z"/>
	<path fill="#1B2C4E" d="M112.043,339.383h-3.209l-6.042-15.631h4.311l3.336,9.66l3.304-9.66h4.312L112.043,339.383z"/>
	<path fill="#1B2C4E" d="M128.564,339.383v-1.352c-0.566,0.541-1.149,0.926-1.747,1.156c-0.598,0.229-1.359,0.344-2.282,0.344
		c-1.825,0-3.221-0.459-4.185-1.379c-0.902-0.9-1.353-2.07-1.353-3.51c0-1.32,0.477-2.404,1.432-3.256
		c0.955-0.85,2.345-1.275,4.17-1.275h3.87v-0.779c0-0.859-0.236-1.484-0.708-1.875c-0.472-0.391-1.254-0.584-2.344-0.584
		c-0.756,0-1.359,0.094-1.81,0.283c-0.451,0.191-0.896,0.525-1.337,1.006l-2.612-2.43c0.776-0.82,1.605-1.385,2.486-1.695
		c0.88-0.311,2.024-0.465,3.43-0.465c4.658,0,6.986,1.84,6.986,5.52v10.291H128.564z M128.47,332.781h-3.241
		c-1.531,0-2.297,0.592-2.297,1.771c0,0.559,0.199,1,0.598,1.32c0.398,0.318,0.986,0.479,1.763,0.479c0.629,0,1.133-0.049,1.51-0.15
		c0.378-0.1,0.734-0.299,1.07-0.6c0.398-0.359,0.598-1.02,0.598-1.979V332.781z"/>
	<path fill="#1B2C4E" d="M146.501,339.383v-9.451c0-0.979-0.267-1.699-0.802-2.16c-0.535-0.459-1.17-0.689-1.904-0.689
		c-0.755,0-1.4,0.23-1.936,0.689c-0.534,0.461-0.802,1.182-0.802,2.16v9.451h-4.091v-15.631h3.997v1.439
		c0.523-0.52,1.143-0.92,1.856-1.199c0.713-0.279,1.458-0.42,2.234-0.42c1.615,0,2.905,0.461,3.871,1.379
		c0.629,0.602,1.064,1.262,1.306,1.98c0.241,0.721,0.362,1.541,0.362,2.461v9.99H146.501z"/>
	<path fill="#1B2C4E" d="M161.511,339.562c-0.902,0-1.777-0.131-2.627-0.391c-0.85-0.26-1.631-0.695-2.345-1.305
		c-0.712-0.609-1.285-1.439-1.715-2.49s-0.645-2.324-0.645-3.824s0.214-2.775,0.645-3.826c0.43-1.049,1.002-1.875,1.715-2.475
		c0.714-0.6,1.495-1.029,2.345-1.289c0.85-0.26,1.726-0.391,2.627-0.391c1.133,0,2.14,0.17,3.021,0.51
		c0.881,0.34,1.679,0.869,2.392,1.59l-2.769,2.641c-0.441-0.439-0.861-0.756-1.259-0.945c-0.399-0.189-0.86-0.285-1.385-0.285
		c-0.965,0-1.742,0.34-2.328,1.02c-0.609,0.721-0.913,1.871-0.913,3.451c0,1.6,0.304,2.76,0.913,3.479
		c0.586,0.682,1.363,1.021,2.328,1.021c0.525,0,0.986-0.096,1.385-0.285c0.398-0.189,0.818-0.506,1.259-0.945l2.769,2.609
		C165.497,338.852,163.693,339.562,161.511,339.562z"/>
	<path fill="#1B2C4E" d="M172.747,332.781c0,1.041,0.319,1.881,0.959,2.521s1.516,0.959,2.627,0.959c0.86,0,1.558-0.115,2.093-0.344
		c0.535-0.23,1.075-0.605,1.621-1.125l2.486,2.309c-0.902,0.861-1.815,1.486-2.738,1.875c-0.923,0.391-2.088,0.586-3.493,0.586
		c-1.05,0-2.02-0.131-2.911-0.391c-0.892-0.26-1.689-0.689-2.392-1.289c-0.703-0.602-1.259-1.426-1.668-2.477
		c-0.409-1.049-0.613-2.334-0.613-3.854c0-2.521,0.65-4.48,1.951-5.881c1.3-1.4,3.031-2.1,5.192-2.1c2.223,0,3.97,0.695,5.239,2.084
		c1.269,1.391,1.904,3.186,1.904,5.387v1.738H172.747z M178.866,329.227c-0.052-0.25-0.141-0.514-0.267-0.795
		c-0.231-0.5-0.578-0.895-1.039-1.184c-0.461-0.291-1.028-0.436-1.699-0.436c-0.651,0-1.212,0.145-1.684,0.436
		c-0.473,0.289-0.823,0.684-1.054,1.184c-0.126,0.281-0.215,0.545-0.268,0.795s-0.089,0.545-0.109,0.885h6.23
		C178.956,329.771,178.919,329.477,178.866,329.227z"/>
	<path fill="#1B2C4E" d="M195.843,339.383v-1.471c-0.567,0.6-1.164,1.025-1.794,1.275c-0.629,0.25-1.384,0.375-2.265,0.375
		c-0.798,0-1.553-0.125-2.266-0.375c-0.714-0.25-1.301-0.596-1.762-1.035c-0.713-0.699-1.196-1.699-1.448-3
		c-0.084-0.52-0.142-1.061-0.173-1.621c-0.032-0.559-0.047-1.219-0.047-1.979c0-1.6,0.099-2.926,0.299-3.977
		c0.199-1.049,0.655-1.914,1.369-2.594c0.461-0.439,1.043-0.785,1.747-1.035c0.703-0.25,1.453-0.375,2.25-0.375
		c0.86,0,1.61,0.119,2.25,0.359s1.222,0.641,1.747,1.201v-7.111h4.091v21.361H195.843z M195.654,329.707
		c-0.063-0.51-0.188-0.955-0.378-1.334c-0.419-0.861-1.195-1.291-2.329-1.291c-0.587,0-1.07,0.109-1.447,0.33
		s-0.661,0.525-0.85,0.914c-0.188,0.391-0.314,0.846-0.377,1.365c-0.063,0.521-0.094,1.141-0.094,1.861
		c0,0.719,0.031,1.34,0.094,1.859s0.189,0.98,0.377,1.381c0.189,0.4,0.472,0.709,0.85,0.93s0.86,0.33,1.447,0.33
		c1.133,0,1.909-0.43,2.329-1.291c0.189-0.379,0.315-0.834,0.378-1.365c0.063-0.529,0.095-1.145,0.095-1.844
		C195.749,330.832,195.717,330.217,195.654,329.707z"/>
	<path fill="#1B2C4E" d="M227.925,334.072c-0.263,1.24-0.886,2.33-1.872,3.27c-0.714,0.68-1.579,1.191-2.597,1.531
		s-2.125,0.51-3.319,0.51h-8.088v-21.361h8.088c1.195,0,2.302,0.17,3.319,0.51c1.018,0.342,1.883,0.852,2.597,1.531
		c0.523,0.48,0.938,1,1.242,1.561c0.304,0.559,0.53,1.174,0.677,1.844c0.146,0.67,0.24,1.391,0.282,2.16
		c0.042,0.77,0.063,1.766,0.063,2.984C228.318,331.012,228.187,332.832,227.925,334.072z M223.771,324.906
		c-0.116-0.77-0.373-1.385-0.771-1.844c-0.755-0.881-1.846-1.32-3.273-1.32h-3.304v13.92h3.304c1.427,0,2.518-0.439,3.273-1.32
		c0.398-0.459,0.655-1.094,0.771-1.904c0.115-0.811,0.173-2.086,0.173-3.826C223.944,326.912,223.886,325.678,223.771,324.906z"/>
	<path fill="#1B2C4E" d="M240.874,339.383v-1.352c-0.567,0.541-1.148,0.926-1.747,1.156c-0.598,0.229-1.358,0.344-2.282,0.344
		c-1.825,0-3.22-0.459-4.185-1.379c-0.902-0.9-1.354-2.07-1.354-3.51c0-1.32,0.477-2.404,1.432-3.256
		c0.955-0.85,2.344-1.275,4.169-1.275h3.871v-0.779c0-0.859-0.236-1.484-0.708-1.875c-0.472-0.391-1.253-0.584-2.344-0.584
		c-0.755,0-1.359,0.094-1.809,0.283c-0.451,0.191-0.897,0.525-1.337,1.006l-2.613-2.43c0.776-0.82,1.606-1.385,2.486-1.695
		c0.882-0.311,2.024-0.465,3.43-0.465c4.658,0,6.986,1.84,6.986,5.52v10.291H240.874z M240.779,332.781h-3.242
		c-1.531,0-2.297,0.592-2.297,1.771c0,0.559,0.199,1,0.598,1.32c0.398,0.318,0.986,0.479,1.762,0.479
		c0.629,0,1.133-0.049,1.511-0.15c0.377-0.1,0.734-0.299,1.07-0.6c0.398-0.359,0.598-1.02,0.598-1.979V332.781z"/>
	<path fill="#1B2C4E" d="M254.405,339.383c-1.553,0-2.733-0.439-3.541-1.32c-0.807-0.881-1.211-1.93-1.211-3.15v-7.74h-1.731v-2.971
		h1.731v-4.619h4.091v4.619h2.895v2.971h-2.895v7.5c0,0.941,0.472,1.41,1.416,1.41h1.479v3.301H254.405z"/>
	<path fill="#1B2C4E" d="M268.66,339.383v-1.352c-0.566,0.541-1.148,0.926-1.747,1.156c-0.598,0.229-1.357,0.344-2.281,0.344
		c-1.824,0-3.221-0.459-4.185-1.379c-0.902-0.9-1.353-2.07-1.353-3.51c0-1.32,0.477-2.404,1.432-3.256
		c0.954-0.85,2.344-1.275,4.169-1.275h3.87v-0.779c0-0.859-0.236-1.484-0.708-1.875c-0.473-0.391-1.254-0.584-2.344-0.584
		c-0.756,0-1.359,0.094-1.81,0.283c-0.451,0.191-0.896,0.525-1.338,1.006l-2.612-2.43c0.776-0.82,1.606-1.385,2.486-1.695
		c0.881-0.311,2.024-0.465,3.431-0.465c4.657,0,6.985,1.84,6.985,5.52v10.291H268.66z M268.565,332.781h-3.241
		c-1.531,0-2.297,0.592-2.297,1.771c0,0.559,0.199,1,0.598,1.32c0.398,0.318,0.986,0.479,1.763,0.479
		c0.629,0,1.133-0.049,1.511-0.15c0.377-0.1,0.734-0.299,1.069-0.6c0.399-0.359,0.598-1.02,0.598-1.979V332.781z"/>
	<path fill="#1B2C4E" d="M300.254,327.262c-0.336,0.801-0.822,1.506-1.464,2.115c-0.64,0.611-1.42,1.09-2.344,1.439
		c-0.924,0.352-1.951,0.525-3.084,0.525h-4.311v8.041h-4.374v-21.361h8.685c1.133,0,2.16,0.17,3.084,0.51
		c0.924,0.342,1.704,0.82,2.344,1.441c0.642,0.619,1.128,1.33,1.464,2.129c0.335,0.801,0.503,1.66,0.503,2.58
		S300.589,326.463,300.254,327.262z M295.503,322.553c-0.587-0.541-1.375-0.811-2.36-0.811h-4.091v5.85h4.091
		c0.985,0,1.773-0.264,2.36-0.795c0.586-0.529,0.881-1.234,0.881-2.115C296.384,323.803,296.089,323.092,295.503,322.553z"/>
	<path fill="#1B2C4E" d="M308.75,339.383c-1.573,0-2.763-0.439-3.571-1.32s-1.212-1.93-1.212-3.15v-16.891h4.092v16.65
		c0,0.941,0.481,1.41,1.446,1.41h1.574v3.301H308.75z"/>
	<path fill="#1B2C4E" d="M322.753,339.383v-1.352c-0.565,0.541-1.147,0.926-1.745,1.156c-0.598,0.229-1.359,0.344-2.282,0.344
		c-1.825,0-3.221-0.459-4.186-1.379c-0.901-0.9-1.353-2.07-1.353-3.51c0-1.32,0.478-2.404,1.432-3.256
		c0.954-0.85,2.345-1.275,4.17-1.275h3.87v-0.779c0-0.859-0.235-1.484-0.708-1.875s-1.254-0.584-2.345-0.584
		c-0.755,0-1.357,0.094-1.809,0.283c-0.45,0.191-0.897,0.525-1.338,1.006l-2.612-2.43c0.777-0.82,1.606-1.385,2.487-1.695
		s2.024-0.465,3.43-0.465c4.656,0,6.985,1.84,6.985,5.52v10.291H322.753z M322.659,332.781h-3.242c-1.53,0-2.295,0.592-2.295,1.771
		c0,0.559,0.198,1,0.598,1.32c0.397,0.318,0.985,0.479,1.762,0.479c0.629,0,1.133-0.049,1.511-0.15c0.376-0.1,0.733-0.299,1.068-0.6
		c0.4-0.359,0.599-1.02,0.599-1.979V332.781z"/>
	<path fill="#1B2C4E" d="M337.671,339.562c-0.903,0-1.779-0.131-2.629-0.391c-0.849-0.26-1.631-0.695-2.344-1.305
		c-0.714-0.609-1.285-1.439-1.716-2.49c-0.43-1.051-0.645-2.324-0.645-3.824s0.215-2.775,0.645-3.826
		c0.431-1.049,1.002-1.875,1.716-2.475c0.713-0.6,1.495-1.029,2.344-1.289c0.85-0.26,1.726-0.391,2.629-0.391
		c1.133,0,2.139,0.17,3.02,0.51s1.679,0.869,2.393,1.59l-2.77,2.641c-0.441-0.439-0.861-0.756-1.258-0.945
		c-0.4-0.189-0.861-0.285-1.385-0.285c-0.966,0-1.743,0.34-2.33,1.02c-0.608,0.721-0.912,1.871-0.912,3.451
		c0,1.6,0.304,2.76,0.912,3.479c0.587,0.682,1.364,1.021,2.33,1.021c0.523,0,0.984-0.096,1.385-0.285
		c0.396-0.189,0.816-0.506,1.258-0.945l2.77,2.609C341.654,338.852,339.853,339.562,337.671,339.562z"/>
	<path fill="#1B2C4E" d="M348.904,332.781c0,1.041,0.319,1.881,0.96,2.521c0.639,0.641,1.516,0.959,2.628,0.959
		c0.859,0,1.557-0.115,2.092-0.344c0.535-0.23,1.074-0.605,1.62-1.125l2.487,2.309c-0.902,0.861-1.815,1.486-2.738,1.875
		c-0.923,0.391-2.088,0.586-3.494,0.586c-1.048,0-2.018-0.131-2.91-0.391c-0.892-0.26-1.688-0.689-2.391-1.289
		c-0.704-0.602-1.259-1.426-1.668-2.477c-0.409-1.049-0.613-2.334-0.613-3.854c0-2.521,0.65-4.48,1.951-5.881
		c1.299-1.4,3.029-2.1,5.191-2.1c2.224,0,3.97,0.695,5.24,2.084c1.268,1.391,1.902,3.186,1.902,5.387v1.738H348.904z
		 M355.024,329.227c-0.053-0.25-0.142-0.514-0.268-0.795c-0.229-0.5-0.575-0.895-1.037-1.184c-0.464-0.291-1.028-0.436-1.7-0.436
		c-0.65,0-1.21,0.145-1.683,0.436c-0.473,0.289-0.825,0.684-1.055,1.184c-0.126,0.281-0.215,0.545-0.268,0.795
		c-0.054,0.25-0.09,0.545-0.11,0.885h6.23C355.114,329.771,355.077,329.477,355.024,329.227z"/>
	<path fill="#1B2C4E" d="M382.009,339.383v-9.451c0-0.979-0.268-1.699-0.804-2.16c-0.534-0.459-1.17-0.689-1.903-0.689
		c-0.734,0-1.374,0.225-1.92,0.676c-0.546,0.449-0.816,1.145-0.816,2.084v9.541h-4.092v-9.451c0-0.979-0.269-1.699-0.803-2.16
		c-0.535-0.459-1.17-0.689-1.904-0.689c-0.754,0-1.4,0.23-1.936,0.689c-0.534,0.461-0.802,1.182-0.802,2.16v9.451h-4.09v-15.631
		h3.995v1.439c0.524-0.52,1.148-0.92,1.873-1.199s1.464-0.42,2.218-0.42c1.889,0,3.336,0.66,4.343,1.98
		c0.692-0.68,1.427-1.18,2.202-1.5c0.777-0.32,1.679-0.48,2.706-0.48c0.819,0,1.579,0.119,2.283,0.359
		c0.703,0.24,1.284,0.58,1.745,1.02c0.63,0.602,1.086,1.266,1.37,1.996c0.282,0.73,0.425,1.545,0.425,2.445v9.99H382.009z"/>
	<path fill="#1B2C4E" d="M393.715,332.781c0,1.041,0.32,1.881,0.959,2.521c0.641,0.641,1.517,0.959,2.629,0.959
		c0.859,0,1.557-0.115,2.09-0.344c0.536-0.23,1.077-0.605,1.622-1.125l2.487,2.309c-0.904,0.861-1.815,1.486-2.738,1.875
		c-0.924,0.391-2.089,0.586-3.493,0.586c-1.051,0-2.019-0.131-2.91-0.391c-0.894-0.26-1.69-0.689-2.393-1.289
		c-0.703-0.602-1.259-1.426-1.669-2.477c-0.408-1.049-0.612-2.334-0.612-3.854c0-2.521,0.649-4.48,1.95-5.881s3.031-2.1,5.193-2.1
		c2.224,0,3.969,0.695,5.239,2.084c1.269,1.391,1.903,3.186,1.903,5.387v1.738H393.715z M399.835,329.227
		c-0.054-0.25-0.142-0.514-0.267-0.795c-0.232-0.5-0.578-0.895-1.038-1.184c-0.463-0.291-1.029-0.436-1.7-0.436
		c-0.65,0-1.212,0.145-1.683,0.436c-0.474,0.289-0.824,0.684-1.056,1.184c-0.125,0.281-0.216,0.545-0.268,0.795
		c-0.053,0.25-0.089,0.545-0.109,0.885h6.23C399.925,329.771,399.888,329.477,399.835,329.227z"/>
	<path fill="#1B2C4E" d="M417.284,339.383v-9.451c0-0.979-0.268-1.699-0.804-2.16c-0.535-0.459-1.168-0.689-1.903-0.689
		c-0.755,0-1.4,0.23-1.936,0.689c-0.534,0.461-0.802,1.182-0.802,2.16v9.451h-4.092v-15.631h3.998v1.439
		c0.522-0.52,1.143-0.92,1.856-1.199c0.712-0.279,1.456-0.42,2.233-0.42c1.615,0,2.906,0.461,3.871,1.379
		c0.629,0.602,1.063,1.262,1.306,1.98c0.241,0.721,0.362,1.541,0.362,2.461v9.99H417.284z"/>
	<path fill="#1B2C4E" d="M430.909,339.383c-1.553,0-2.733-0.439-3.541-1.32c-0.806-0.881-1.211-1.93-1.211-3.15v-7.74h-1.73v-2.971
		h1.73v-4.619h4.091v4.619h2.896v2.971h-2.896v7.5c0,0.941,0.473,1.41,1.415,1.41h1.48v3.301H430.909z"/>
	<path fill="#1B2C4E" d="M451.236,339.383h-3.209l-6.042-15.631h4.312l3.336,9.66l3.304-9.66h4.311L451.236,339.383z"/>
	<path fill="#1B2C4E" d="M459.607,321.082v-3.18h4.186v3.18H459.607z M459.672,339.383v-15.631h4.09v15.631H459.672z"/>
	<path fill="#1B2C4E" d="M476.727,339.383v-1.352c-0.566,0.541-1.148,0.926-1.747,1.156c-0.598,0.229-1.358,0.344-2.28,0.344
		c-1.825,0-3.221-0.459-4.186-1.379c-0.902-0.9-1.354-2.07-1.354-3.51c0-1.32,0.477-2.404,1.431-3.256
		c0.955-0.85,2.347-1.275,4.171-1.275h3.871v-0.779c0-0.859-0.237-1.484-0.709-1.875s-1.254-0.584-2.344-0.584
		c-0.757,0-1.358,0.094-1.809,0.283c-0.452,0.191-0.897,0.525-1.339,1.006l-2.611-2.43c0.775-0.82,1.605-1.385,2.486-1.695
		c0.88-0.311,2.022-0.465,3.43-0.465c4.657,0,6.985,1.84,6.985,5.52v10.291H476.727z M476.633,332.781h-3.242
		c-1.531,0-2.297,0.592-2.297,1.771c0,0.559,0.2,1,0.598,1.32c0.399,0.318,0.986,0.479,1.763,0.479c0.63,0,1.132-0.049,1.511-0.15
		c0.376-0.1,0.734-0.299,1.069-0.6c0.399-0.359,0.599-1.02,0.599-1.979V332.781z"/>
</g>
<g>
	<path fill="#F08102" d="M616.001,256.026c-34.376,34.358-71.03,24.108-90.665,5.801c-9.209-8.586-13.805-20.738-13.805-33.325
		c0-12.591,4.901-24.428,13.805-33.33c14.198-14.2,37.304-14.2,51.503,0c5.266,5.264,8.162,12.263,8.162,19.703
		c0,7.438-2.896,14.433-8.162,19.694c-3.966,3.969-9.238,6.154-14.849,6.154c-5.607,0-10.885-2.185-14.852-6.154
		c-2.93-2.934-4.546-6.832-4.546-10.976c0-4.143,1.616-8.043,4.546-10.973c4.341-4.341,16.246,0.288,16.79,5.211l8.585-6.488
		c-9.014-13.685-25.099-17.124-34.438-7.787c-5.352,5.351-8.301,12.466-8.301,20.036c0,7.572,2.949,14.688,8.298,20.038
		c6.388,6.393,17.488,13.553,26.52,13.562c17.207,0.013,20.975-4.324,26-7.829c25.656-17.89,24.25-55.95,21.299-76.18
		c-1.567-10.75-7.854-21.665-10.354-25.115c-6.063-8.365-20.847-15.471-33.533-17.951c-37.853-7.401-55.764,0.242-55.764,0.242
		c-6.434,0-21.24,18.59-21.24,25.225l4.69,20.324l-38.693,0.112c1.926-5.99,6.568-11.091,13.622-11.467
		c0,0-29.954-18.065,20.153-34.766l-16.937,11.074c-24.39-1.703-45.21,6.385-45.21,6.385l1.4,29.184l-42.84-0.409
		c2.119-7.676,8.032-11.352,13.603-11.485l6.259-0.149l-3.827-15.578c-10.927,0.806-20.339,1.423-28.489,1.884
		c-1.065,0.06-14.644,8.076-14.925,8.091c-1.375,0.073,8.235-7.736,6.937-7.672c-1.81,0.087-13.553,8.122-12.027,6.537
		c0.823-0.856,4.468-6.206,3.349-6.165c-0.712,0.026-7.489,5.815-8.174,5.838c-1.017,0.035,4.078-5.699,3.119-5.672
		c-25.661,0.719-37.062-2.599-45.924-4.209c-6.476-1.178,43.855-12.339,43.855-12.339l-47.153,7.954l-0.942-28.407
		c0-19.18,7.957-39.343,26.354-46.26c0,0-0.54-11.458,24.087-36.062c6.886-6.881,27.487-13.916,42.592-13.916l-7.178,32.448l0,0
		c8.193-6.948,17.327-12.482,27.019-16.46c1.251-0.513,3.951,3.002,5.219,2.54c1.602-0.582,1.775-5.125,3.399-5.623
		c1.94-0.595,4.88,3.316,6.85,2.844c2.287-0.548,3.609-5.458,5.93-5.839c2.303-0.378,4.772,3.965,7.1,3.754
		c2.858-0.259,5.579-5.029,8.459-5.029c1.508,0,2.866,3.756,4.396,3.814c1.691,0.065,3.56-3.561,5.275-3.426
		c0.908,0.071,2.32,3.509,3.236,3.599c1.457,0.144,2.423-3.045,3.894-2.854c1.007,0.13,2.666,3.745,3.679,3.896
		c1.373,0.207,2.104-3.04,3.487-2.796c1.759,0.312,2.801,3.641,4.575,4.013c1.13,0.236,2.987-2.504,4.123-2.244
		c2.271,0.521,2.968,3.89,5.258,4.502c1.229,0.329,4.045-2.13,5.278-1.777c1.372,0.395,2.378,3.958,3.755,4.383
		c1.396,0.431,3.166-2.276,4.566-1.814c1.129,0.373,1.771,3.159,2.902,3.551c3.611,1.251,0.633-2.377,3.67-1.278
		c1.239,0.449,2.213,2.544,3.454,3.015c0.884,0.336,2.037-0.958,2.923-0.612c40.914,16.023,69.709,41.353,93.773,69.884
		c19.778,23.453,38.279,88.789,16.622,128.781C627.543,239.679,623.201,248.742,616.001,256.026z M624.99,220.136"/>
	<g>
		<g>
			<defs>
				<rect id="SVGID_1_" x="284.678" width="370.343" height="244.331"/>
			</defs>
			<clipPath id="SVGID_2_">
				<use xlink:href="#SVGID_1_"  overflow="visible"/>
			</clipPath>
		</g>
		<path fill="#FFFFFF" d="M347.66,74.274c-13.543,0-24.562,11.015-24.562,24.558c0,13.541,11.014,24.561,24.562,24.561
			c13.542,0,24.556-11.019,24.556-24.561C372.216,85.289,361.201,74.274,347.66,74.274L347.66,74.274z M346.617,110.574
			c-6.478,0-11.743-5.267-11.743-11.742c0-6.474,5.266-11.743,11.743-11.743c6.472,0,11.737,5.27,11.737,11.743
			s-4.222,11.742-10.694,11.742H346.617z M347.66,110.574"/>
	</g>
</g>
</svg>
